<?xml version="1.0" encoding="utf-8"?>
<!-- Generator: Adobe Illustrator 23.0.1, SVG Export Plug-In . SVG Version: 6.00 Build 0)  -->
<svg version="1.1" xmlns="http://www.w3.org/2000/svg" xmlns:xlink="http://www.w3.org/1999/xlink" x="0px" y="0px" width="850.061px"
	 height="607.186px" viewBox="0 0 850.061 607.186" enable-background="new 0 0 850.061 607.186" xml:space="preserve">
<rect id="rect942" fill="#FFFFFF" width="850.061" height="607.186"/>
<g>
	<path fill="#009A49" d="M274.215,78.506h301.631v70.566c-24.949,9.763-44.197,11.686-64.764,12.278
		c-20.903,0.598-52.454-2.031-75.215-8.916c-22.768-6.887-53.113-13.851-85.415-14.008c-27.275-0.134-65.224,7.465-76.237,9.834
		V78.506z M274.215,380.138V229.423l291.984,150.714H274.215z M599.048,55.304H251.012v348.037h348.037V55.304z"/>
	<rect x="251.012" y="410.712" fill="#F32837" width="348.037" height="8.287"/>
	<g>
		<path fill="#009A49" d="M592.876,460.435c0.629,0.483,1.456,0.725,2.477,0.725c1.273,0,2.209-0.41,2.803-1.229
			c0.595-0.819,0.894-2.132,0.894-3.937v-1.471h-1.681c0,0.183,0.008,0.425,0.021,0.726c0.014,0.3,0.02,0.521,0.02,0.661
			c0,0.924-0.061,1.571-0.187,1.943c-0.126,0.37-0.338,0.556-0.63,0.556c-0.239,0-0.407-0.07-0.504-0.21
			c-0.097-0.14-0.148-0.434-0.148-0.883v-12.64c0-2.393-0.557-4.181-1.669-5.366c-1.113-1.183-2.803-1.774-5.072-1.774
			c-2.03,0-3.686,0.56-4.967,1.679c-1.281,1.121-1.921,2.541-1.921,4.263c0,1.008,0.269,1.798,0.81,2.372
			c0.537,0.576,1.268,0.862,2.193,0.862c0.77,0,1.387-0.216,1.848-0.652c0.463-0.432,0.693-1.006,0.693-1.72
			c0-0.771-0.175-1.358-0.525-1.765c-0.349-0.406-0.86-0.609-1.532-0.609c-0.225,0-0.396,0.006-0.515,0.02
			c-0.119,0.015-0.236,0.037-0.347,0.064c0.237-0.643,0.636-1.148,1.197-1.512c0.559-0.362,1.22-0.545,1.973-0.545
			c1.051,0,1.88,0.332,2.491,0.996c0.608,0.665,0.912,1.565,0.912,2.699c0,0.924-0.251,1.728-0.755,2.415
			c-0.505,0.685-1.366,1.372-2.584,2.059c-0.266,0.14-0.679,0.35-1.239,0.629c-1.568,0.77-2.736,1.504-3.507,2.205
			c-0.559,0.519-0.98,1.153-1.259,1.9c-0.282,0.751-0.422,1.608-0.422,2.573c0,1.765,0.442,3.155,1.325,4.169
			c0.882,1.016,2.078,1.523,3.59,1.523c1.063,0,1.981-0.234,2.751-0.703c0.769-0.469,1.469-1.215,2.1-2.237
			C591.79,459.214,592.246,459.952,592.876,460.435 M591.3,452.592c0,1.652-0.213,2.859-0.639,3.621
			c-0.428,0.764-1.102,1.145-2.028,1.145c-0.629,0-1.165-0.225-1.605-0.681c-0.442-0.455-0.662-1.012-0.662-1.67
			c0-1.232,0.903-2.604,2.709-4.116c0.979-0.813,1.722-1.491,2.226-2.037V452.592z M570.031,446.397
			c0-1.736,0.242-3.021,0.725-3.854c0.483-0.833,1.221-1.248,2.215-1.248c0.574,0,1.011,0.202,1.311,0.607
			c0.301,0.406,0.452,1.016,0.452,1.827v12.307c0,0.812-0.117,1.329-0.356,1.555c-0.239,0.222-0.722,0.335-1.448,0.335v2.584h8.462
			v-2.584c-0.84,0-1.385-0.108-1.638-0.326c-0.253-0.218-0.378-0.739-0.378-1.564V444.34c0-2.424-0.352-4.161-1.051-5.219
			c-0.7-1.057-1.842-1.585-3.423-1.585c-1.023,0-1.946,0.273-2.773,0.819c-0.825,0.545-1.596,1.393-2.31,2.541v-2.71h-6.447v2.625
			c0.839,0,1.38,0.105,1.617,0.315c0.237,0.21,0.358,0.722,0.358,1.533v13.377c0,0.825-0.123,1.346-0.368,1.564
			c-0.245,0.218-0.781,0.326-1.606,0.326v2.584h8.462v-2.584c-0.757-0.029-1.245-0.146-1.469-0.358
			c-0.224-0.21-0.336-0.72-0.336-1.532V446.397z M546.36,454.462c-0.504,0.784-0.755,1.664-0.755,2.645
			c0,0.938,0.232,1.743,0.693,2.415c0.461,0.673,1.175,1.247,2.142,1.722c-1.092,0.434-1.902,0.924-2.427,1.471
			c-0.524,0.545-0.787,1.16-0.787,1.847c0,1.245,0.725,2.25,2.174,3.013c1.449,0.763,3.404,1.145,5.869,1.145
			c2.981,0,5.261-0.574,6.835-1.72c1.574-1.15,2.363-2.809,2.363-4.979c0-1.008-0.183-1.885-0.547-2.635
			c-0.364-0.748-0.903-1.346-1.617-1.794c-0.545-0.352-2.057-0.611-4.537-0.778c-0.783-0.056-1.384-0.099-1.804-0.126
			c-2.128-0.167-3.493-0.364-4.094-0.588c-0.603-0.224-0.903-0.574-0.903-1.049c0-0.225,0.09-0.47,0.273-0.737
			c0.181-0.265,0.475-0.58,0.88-0.944c0.534,0.21,1.049,0.37,1.544,0.483c0.498,0.113,0.97,0.169,1.418,0.169
			c2.198,0,3.86-0.737,4.988-2.205c1.127-1.471,1.692-3.633,1.692-6.489c0-1.512-0.228-2.803-0.684-3.875
			c-0.455-1.07-1.13-1.914-2.027-2.53c0.336-0.685,0.711-1.2,1.124-1.542c0.413-0.344,0.851-0.514,1.312-0.514
			c0.111,0,0.274,0.02,0.482,0.062c0.027,0,0.056,0.008,0.084,0.021c-0.362,0.097-0.641,0.276-0.828,0.534
			c-0.189,0.259-0.285,0.579-0.285,0.956c0,0.504,0.152,0.903,0.452,1.197c0.302,0.294,0.71,0.442,1.229,0.442
			c0.588,0,1.057-0.19,1.407-0.568c0.35-0.377,0.525-0.888,0.525-1.532c0-0.883-0.288-1.583-0.86-2.101
			c-0.576-0.518-1.338-0.778-2.29-0.778c-0.771,0-1.52,0.239-2.247,0.714c-0.728,0.478-1.421,1.184-2.078,2.122
			c-0.42-0.14-0.83-0.242-1.229-0.306c-0.399-0.062-0.809-0.093-1.229-0.093c-1.932,0-3.484,0.787-4.651,2.362
			c-1.169,1.576-1.754,3.686-1.754,6.332c0,1.442,0.193,2.666,0.579,3.674c0.384,1.008,0.99,1.848,1.816,2.52
			C547.613,452.997,546.864,453.676,546.36,454.462 M557.217,462.419c0.279,0.014,0.448,0.021,0.502,0.021
			c0.729,0.085,1.221,0.224,1.481,0.42c0.259,0.196,0.388,0.518,0.388,0.967c0,0.784-0.48,1.402-1.439,1.858
			c-0.959,0.454-2.272,0.682-3.936,0.682c-1.78,0-3.144-0.234-4.097-0.703c-0.95-0.469-1.427-1.137-1.427-2.005
			c0-0.406,0.094-0.764,0.283-1.07c0.19-0.309,0.472-0.574,0.851-0.799C552.386,462.07,554.85,462.278,557.217,462.419
			 M551.273,450.188c-0.335-0.805-0.503-2.266-0.503-4.379c0-2.127,0.167-3.601,0.503-4.422c0.336-0.818,0.911-1.229,1.723-1.229
			c0.796,0,1.364,0.411,1.701,1.229c0.335,0.821,0.504,2.295,0.504,4.422c0,2.099-0.169,3.555-0.504,4.368
			c-0.337,0.811-0.904,1.217-1.701,1.217C552.184,451.394,551.61,450.992,551.273,450.188 M538.647,460.435
			c0.63,0.483,1.456,0.725,2.477,0.725c1.274,0,2.209-0.41,2.805-1.229c0.594-0.819,0.892-2.132,0.892-3.937v-1.471h-1.681
			c0,0.183,0.008,0.425,0.021,0.726c0.015,0.3,0.021,0.521,0.021,0.661c0,0.924-0.062,1.571-0.189,1.943
			c-0.126,0.37-0.335,0.556-0.63,0.556c-0.239,0-0.405-0.07-0.504-0.21c-0.097-0.14-0.146-0.434-0.146-0.883v-12.64
			c0-2.393-0.556-4.181-1.67-5.366c-1.113-1.183-2.803-1.774-5.072-1.774c-2.029,0-3.685,0.56-4.965,1.679
			c-1.282,1.121-1.923,2.541-1.923,4.263c0,1.008,0.269,1.798,0.81,2.372c0.537,0.576,1.27,0.862,2.194,0.862
			c0.769,0,1.386-0.216,1.848-0.652c0.461-0.432,0.693-1.006,0.693-1.72c0-0.771-0.175-1.358-0.525-1.765
			c-0.35-0.406-0.862-0.609-1.533-0.609c-0.225,0-0.396,0.006-0.515,0.02c-0.119,0.015-0.234,0.037-0.346,0.064
			c0.238-0.643,0.635-1.148,1.197-1.512c0.56-0.362,1.218-0.545,1.973-0.545c1.051,0,1.879,0.332,2.489,0.996
			c0.608,0.665,0.913,1.565,0.913,2.699c0,0.924-0.253,1.728-0.757,2.415c-0.504,0.685-1.366,1.372-2.584,2.059
			c-0.266,0.14-0.678,0.35-1.24,0.629c-1.567,0.77-2.736,1.504-3.506,2.205c-0.559,0.519-0.979,1.153-1.259,1.9
			c-0.28,0.751-0.419,1.608-0.419,2.573c0,1.765,0.44,3.155,1.322,4.169c0.883,1.016,2.08,1.523,3.59,1.523
			c1.066,0,1.982-0.234,2.753-0.703c0.769-0.469,1.469-1.215,2.099-2.237C537.561,459.214,538.016,459.952,538.647,460.435
			 M537.072,452.592c0,1.652-0.215,2.859-0.641,3.621c-0.428,0.764-1.102,1.145-2.026,1.145c-0.63,0-1.165-0.225-1.606-0.681
			s-0.661-1.012-0.661-1.67c0-1.232,0.903-2.604,2.707-4.116c0.981-0.813,1.723-1.491,2.227-2.037V452.592z M514.092,438.491
			c-0.751-0.638-1.65-0.956-2.699-0.956c-0.981,0-1.876,0.276-2.687,0.83c-0.813,0.553-1.568,1.396-2.268,2.531v-2.71h-6.489v2.625
			c0.84,0,1.379,0.105,1.617,0.315c0.239,0.21,0.358,0.722,0.358,1.533v13.377c0,0.825-0.122,1.346-0.367,1.564
			c-0.245,0.218-0.781,0.326-1.608,0.326v2.584h8.254v-2.584c-0.672-0.014-1.121-0.126-1.343-0.335
			c-0.225-0.212-0.338-0.729-0.338-1.555v-9.639c0-1.695,0.239-2.967,0.714-3.822c0.476-0.854,1.191-1.28,2.142-1.28
			c0.617,0,1.078,0.202,1.387,0.607c0.306,0.406,0.461,1.016,0.461,1.827v12.307c0,0.784-0.116,1.291-0.347,1.521
			c-0.23,0.232-0.688,0.355-1.375,0.368v2.584h7.999l-0.02-2.584c-0.685-0.014-1.14-0.129-1.366-0.345
			c-0.222-0.218-0.335-0.732-0.335-1.544v-9.639c0-1.695,0.234-2.967,0.703-3.822c0.469-0.854,1.178-1.28,2.132-1.28
			c0.615,0,1.076,0.202,1.385,0.607c0.308,0.406,0.461,1.016,0.461,1.827v12.307c0,0.798-0.105,1.305-0.315,1.521
			c-0.209,0.219-0.658,0.34-1.344,0.368l-0.02,2.584h8.252v-2.584c-0.841,0-1.386-0.108-1.637-0.326
			c-0.253-0.218-0.379-0.739-0.379-1.564V444.34c0-2.409-0.343-4.144-1.029-5.209c-0.685-1.064-1.806-1.596-3.359-1.596
			c-1.008,0-1.932,0.298-2.773,0.892c-0.839,0.595-1.589,1.488-2.247,2.678C515.347,439.999,514.84,439.126,514.092,438.491
			 M498.586,458.586c1.064-1.714,1.596-4.798,1.596-9.25c0-4.452-0.534-7.531-1.606-9.241c-1.07-1.707-2.916-2.561-5.533-2.561
			c-2.591,0-4.42,0.854-5.492,2.561c-1.07,1.71-1.606,4.789-1.606,9.241c0,4.481,0.531,7.57,1.596,9.271
			c1.064,1.702,2.899,2.552,5.503,2.552C495.674,461.159,497.522,460.301,498.586,458.586 M491.299,456.707
			c-0.323-0.953-0.483-3.409-0.483-7.371c0-3.948,0.16-6.398,0.483-7.351c0.321-0.95,0.917-1.427,1.784-1.427
			c0.839,0,1.418,0.476,1.733,1.427c0.315,0.953,0.472,3.403,0.472,7.351c0,3.962-0.154,6.418-0.461,7.371
			c-0.308,0.953-0.889,1.428-1.743,1.428C492.216,458.136,491.621,457.661,491.299,456.707 M471.051,430.582h1.55
			c1.762,0,2.963,0.399,3.604,1.198c0.641,0.802,0.961,2.234,0.961,4.298c0,2.031-0.356,3.482-1.07,4.356
			c-0.713,0.871-1.906,1.306-3.581,1.306h-1.463V430.582z M471.051,445.317c0.116-0.015,0.233-0.029,0.35-0.036
			c0.114-0.008,0.283-0.012,0.501-0.012c1.413,0,2.418,0.384,3.015,1.152c0.597,0.769,0.93,2.151,1.003,4.152
			c0.014,0.464,0.031,1.143,0.044,2.039c0.058,3.137,0.387,5.297,0.984,6.482c0.393,0.767,0.898,1.326,1.517,1.679
			c0.62,0.352,1.41,0.528,2.371,0.528c1.586,0,2.736-0.521,3.45-1.561c0.714-1.04,1.072-2.736,1.072-5.088v-1.414h-1.792v2.302
			c0,0.592-0.104,1.069-0.306,1.428c-0.204,0.361-0.474,0.541-0.809,0.541c-0.67,0-1.078-1.271-1.223-3.816
			c-0.029-0.591-0.052-1.032-0.065-1.322c-0.189-2.83-0.611-4.799-1.267-5.903c-0.656-1.102-1.739-1.832-3.254-2.183
			c1.835-0.32,3.246-1.204,4.237-2.652c0.99-1.447,1.483-3.347,1.483-5.701c0-2.943-0.763-5.117-2.292-6.526
			c-1.529-1.409-3.895-2.113-7.098-2.113h-9.609v3.289c0.83,0,1.416,0.177,1.759,0.527c0.341,0.352,0.513,0.976,0.513,1.873v21.815
			c0,0.895-0.172,1.524-0.513,1.885c-0.343,0.358-0.929,0.539-1.759,0.539v3.289h10.133v-3.289h-0.175
			c-0.843,0-1.434-0.181-1.768-0.539c-0.335-0.361-0.502-0.99-0.502-1.885V445.317z M463.612,447.216h-6.655v3.738h6.655V447.216z
			 M450.796,460.435c0.629,0.483,1.456,0.725,2.477,0.725c1.273,0,2.209-0.41,2.805-1.229c0.594-0.819,0.892-2.132,0.892-3.937
			v-1.471h-1.681c0,0.183,0.008,0.425,0.021,0.726c0.014,0.3,0.02,0.521,0.02,0.661c0,0.924-0.063,1.571-0.189,1.943
			c-0.125,0.37-0.335,0.556-0.629,0.556c-0.239,0-0.407-0.07-0.504-0.21c-0.097-0.14-0.146-0.434-0.146-0.883v-12.64
			c0-2.393-0.557-4.181-1.67-5.366c-1.113-1.183-2.803-1.774-5.072-1.774c-2.029,0-3.686,0.56-4.965,1.679
			c-1.282,1.121-1.923,2.541-1.923,4.263c0,1.008,0.269,1.798,0.808,2.372c0.539,0.576,1.271,0.862,2.194,0.862
			c0.77,0,1.385-0.216,1.85-0.652c0.461-0.432,0.691-1.006,0.691-1.72c0-0.771-0.174-1.358-0.525-1.765
			c-0.349-0.406-0.86-0.609-1.532-0.609c-0.225,0-0.396,0.006-0.515,0.02c-0.119,0.015-0.234,0.037-0.347,0.064
			c0.237-0.643,0.636-1.148,1.198-1.512c0.559-0.362,1.218-0.545,1.973-0.545c1.049,0,1.879,0.332,2.488,0.996
			c0.609,0.665,0.915,1.565,0.915,2.699c0,0.924-0.253,1.728-0.757,2.415c-0.504,0.685-1.366,1.372-2.584,2.059
			c-0.266,0.14-0.679,0.35-1.239,0.629c-1.567,0.77-2.736,1.504-3.507,2.205c-0.56,0.519-0.979,1.153-1.259,1.9
			c-0.282,0.751-0.42,1.608-0.42,2.573c0,1.765,0.442,3.155,1.323,4.169c0.882,1.016,2.08,1.523,3.59,1.523
			c1.064,0,1.981-0.234,2.751-0.703c0.769-0.469,1.471-1.215,2.101-2.237C449.711,459.214,450.166,459.952,450.796,460.435
			 M449.22,452.592c0,1.652-0.213,2.859-0.641,3.621c-0.426,0.764-1.102,1.145-2.027,1.145c-0.629,0-1.165-0.225-1.606-0.681
			c-0.44-0.455-0.661-1.012-0.661-1.67c0-1.232,0.903-2.604,2.709-4.116c0.981-0.813,1.724-1.491,2.226-2.037V452.592z
			 M432.751,435.477c0.525,0.518,1.179,0.777,1.963,0.777c0.771,0,1.409-0.254,1.911-0.766c0.504-0.51,0.757-1.157,0.757-1.941
			c0-0.743-0.263-1.381-0.787-1.912c-0.525-0.531-1.153-0.798-1.88-0.798s-1.369,0.273-1.921,0.819
			c-0.553,0.547-0.828,1.177-0.828,1.891C431.964,434.315,432.225,434.959,432.751,435.477 M437.297,438.185h-6.678v2.625
			c0.84,0,1.378,0.105,1.617,0.315c0.237,0.21,0.356,0.722,0.356,1.533v13.377c0,0.825-0.123,1.346-0.367,1.564
			c-0.245,0.218-0.78,0.326-1.606,0.326v2.584h8.651v-2.584c-0.827,0-1.361-0.105-1.606-0.315s-0.367-0.734-0.367-1.574V438.185z
			 M427.537,430.27h-6.658v2.625c0.84,0,1.378,0.105,1.617,0.314c0.238,0.212,0.357,0.722,0.357,1.535v21.293
			c0,0.825-0.123,1.346-0.368,1.564c-0.245,0.218-0.78,0.326-1.606,0.326v2.584h8.651v-2.584c-0.827,0-1.364-0.105-1.617-0.315
			c-0.253-0.21-0.376-0.734-0.376-1.574V430.27z M413.009,435.477c0.525,0.518,1.18,0.777,1.963,0.777
			c0.771,0,1.408-0.254,1.912-0.766c0.503-0.51,0.756-1.157,0.756-1.941c0-0.743-0.262-1.381-0.787-1.912
			c-0.525-0.531-1.152-0.798-1.88-0.798c-0.728,0-1.367,0.273-1.921,0.819c-0.553,0.547-0.829,1.177-0.829,1.891
			C412.222,434.315,412.484,434.959,413.009,435.477 M417.555,438.185h-6.678v2.625c0.841,0,1.379,0.105,1.617,0.315
			c0.238,0.21,0.357,0.722,0.357,1.533v13.377c0,0.825-0.123,1.346-0.368,1.564c-0.245,0.218-0.78,0.326-1.606,0.326v2.584h8.651
			v-2.584c-0.826,0-1.36-0.105-1.606-0.315c-0.244-0.21-0.368-0.734-0.368-1.574V438.185z M396.802,438.491
			c-0.75-0.638-1.648-0.956-2.699-0.956c-0.979,0-1.876,0.276-2.688,0.83c-0.812,0.553-1.568,1.396-2.267,2.531v-2.71h-6.489v2.625
			c0.839,0,1.379,0.105,1.617,0.315c0.237,0.21,0.357,0.722,0.357,1.533v13.377c0,0.825-0.123,1.346-0.368,1.564
			c-0.245,0.218-0.781,0.326-1.606,0.326v2.584h8.252v-2.584c-0.672-0.014-1.121-0.126-1.344-0.335
			c-0.225-0.212-0.336-0.729-0.336-1.555v-9.639c0-1.695,0.238-2.967,0.714-3.822c0.476-0.854,1.189-1.28,2.142-1.28
			c0.616,0,1.079,0.202,1.386,0.607c0.309,0.406,0.461,1.016,0.461,1.827v12.307c0,0.784-0.115,1.291-0.346,1.521
			c-0.231,0.232-0.689,0.355-1.375,0.368v2.584h8.001l-0.022-2.584c-0.686-0.014-1.141-0.129-1.364-0.345
			c-0.224-0.218-0.336-0.732-0.336-1.544v-9.639c0-1.695,0.234-2.967,0.703-3.822c0.47-0.854,1.181-1.28,2.132-1.28
			c0.616,0,1.079,0.202,1.386,0.607c0.308,0.406,0.463,1.016,0.463,1.827v12.307c0,0.798-0.106,1.305-0.315,1.521
			c-0.21,0.219-0.658,0.34-1.344,0.368l-0.022,2.584h8.252v-2.584c-0.838,0-1.384-0.108-1.637-0.326
			c-0.253-0.218-0.379-0.739-0.379-1.564V444.34c0-2.409-0.343-4.144-1.029-5.209c-0.687-1.064-1.806-1.596-3.36-1.596
			c-1.007,0-1.931,0.298-2.77,0.892c-0.841,0.595-1.59,1.488-2.248,2.678C398.059,439.999,397.55,439.126,396.802,438.491
			 M381.522,460.509v-12.721h-2.511c-0.073,3.744-0.586,6.252-1.54,7.525c-0.953,1.271-2.798,1.908-5.535,1.908h-1.464v-12.193
			h0.568c1.251,0,2.141,0.353,2.665,1.058c0.524,0.702,0.786,1.903,0.786,3.598v0.216h2.38v-13.03h-2.38v0.239
			c0,1.696-0.257,2.891-0.775,3.589c-0.516,0.694-1.408,1.043-2.675,1.043h-0.568v-11.159h1.026c2.708,0,4.543,0.536,5.503,1.608
			c0.962,1.072,1.5,3.088,1.617,6.048h2.534v-10.944h-18.367v3.289c0.831,0,1.417,0.177,1.759,0.527
			c0.341,0.352,0.512,0.976,0.512,1.873v21.815c0,0.895-0.171,1.524-0.512,1.885c-0.342,0.358-0.928,0.539-1.759,0.539v3.289
			H381.522z M351.226,444.506c0-1.51,0.171-2.607,0.514-3.284c0.343-0.681,0.886-1.02,1.628-1.02c0.784,0,1.341,0.312,1.669,0.935
			c0.329,0.623,0.493,1.719,0.493,3.287v2.666h-4.304V444.506z M359.857,449.757v-1.891v-0.693c0-1.707-0.064-2.971-0.188-3.79
			c-0.126-0.819-0.343-1.55-0.652-2.196c-0.589-1.189-1.345-2.095-2.267-2.719c-0.925-0.621-1.996-0.933-3.213-0.933
			c-2.437,0-4.243,0.973-5.418,2.919c-1.175,1.946-1.765,4.962-1.765,9.05c0,4.228,0.561,7.22,1.68,8.977
			c1.12,1.757,2.989,2.636,5.607,2.636c2.072,0,3.627-0.693,4.662-2.078c1.036-1.386,1.554-3.45,1.554-6.194
			c0-0.085-0.008-0.239-0.021-0.463c-0.014-0.224-0.021-0.401-0.021-0.525h-2.961c0,2.253-0.214,3.878-0.641,4.871
			c-0.427,0.996-1.116,1.492-2.068,1.492c-1.05,0-1.8-0.533-2.247-1.596c-0.447-1.064-0.671-2.94-0.671-5.629v-1.238H359.857z
			 M335.07,446.397c0-1.736,0.242-3.021,0.725-3.854c0.481-0.833,1.22-1.248,2.215-1.248c0.573,0,1.01,0.202,1.311,0.607
			c0.301,0.406,0.452,1.016,0.452,1.827v12.307c0,0.812-0.119,1.329-0.357,1.555c-0.238,0.222-0.722,0.335-1.448,0.335v2.584h8.462
			v-2.584c-0.841,0-1.386-0.108-1.638-0.326c-0.253-0.218-0.378-0.739-0.378-1.564V444.34c0-2.424-0.351-4.161-1.051-5.219
			c-0.7-1.057-1.842-1.585-3.423-1.585c-1.022,0-1.947,0.273-2.772,0.819c-0.827,0.545-1.596,1.393-2.31,2.541v-2.71h-6.447v2.625
			c0.84,0,1.38,0.105,1.617,0.315c0.238,0.21,0.357,0.722,0.357,1.533v13.377c0,0.825-0.122,1.346-0.366,1.564
			c-0.247,0.218-0.781,0.326-1.608,0.326v2.584h8.463v-2.584c-0.756-0.029-1.245-0.146-1.47-0.358
			c-0.223-0.21-0.336-0.72-0.336-1.532V446.397z M326.705,458.586c1.064-1.714,1.596-4.798,1.596-9.25
			c0-4.452-0.535-7.531-1.606-9.241c-1.071-1.707-2.915-2.561-5.533-2.561c-2.591,0-4.42,0.854-5.491,2.561
			c-1.071,1.71-1.607,4.789-1.607,9.241c0,4.481,0.531,7.57,1.597,9.271c1.063,1.702,2.898,2.552,5.502,2.552
			C323.793,461.159,325.641,460.301,326.705,458.586 M319.418,456.707c-0.323-0.953-0.483-3.409-0.483-7.371
			c0-3.948,0.16-6.398,0.483-7.351c0.321-0.95,0.917-1.427,1.785-1.427c0.839,0,1.418,0.476,1.733,1.427
			c0.314,0.953,0.472,3.403,0.472,7.351c0,3.962-0.155,6.418-0.461,7.371c-0.308,0.953-0.89,1.428-1.743,1.428
			C320.336,458.136,319.74,457.661,319.418,456.707 M307.535,435.477c0.525,0.518,1.18,0.777,1.964,0.777
			c0.769,0,1.406-0.254,1.91-0.766c0.505-0.51,0.756-1.157,0.756-1.941c0-0.743-0.262-1.381-0.787-1.912
			c-0.525-0.531-1.153-0.798-1.879-0.798c-0.728,0-1.369,0.273-1.922,0.819c-0.552,0.547-0.83,1.177-0.83,1.891
			C306.748,434.315,307.011,434.959,307.535,435.477 M312.081,438.185h-6.677v2.625c0.841,0,1.379,0.105,1.617,0.315
			c0.238,0.21,0.357,0.722,0.357,1.533v13.377c0,0.825-0.122,1.346-0.367,1.564c-0.246,0.218-0.781,0.326-1.607,0.326v2.584h8.651
			v-2.584c-0.824,0-1.361-0.105-1.606-0.315c-0.245-0.21-0.368-0.734-0.368-1.574V438.185z M288.478,454.462
			c-0.504,0.784-0.754,1.664-0.754,2.645c0,0.938,0.231,1.743,0.692,2.415c0.461,0.673,1.176,1.247,2.142,1.722
			c-1.092,0.434-1.901,0.924-2.426,1.471c-0.524,0.545-0.787,1.16-0.787,1.847c0,1.245,0.725,2.25,2.174,3.013
			c1.449,0.763,3.405,1.145,5.87,1.145c2.98,0,5.26-0.574,6.835-1.72c1.574-1.15,2.362-2.809,2.362-4.979
			c0-1.008-0.183-1.885-0.546-2.635c-0.365-0.748-0.903-1.346-1.617-1.794c-0.546-0.352-2.058-0.611-4.535-0.778
			c-0.785-0.056-1.386-0.099-1.807-0.126c-2.129-0.167-3.493-0.364-4.094-0.588c-0.602-0.224-0.903-0.574-0.903-1.049
			c0-0.225,0.091-0.47,0.273-0.737c0.181-0.265,0.476-0.58,0.882-0.944c0.533,0.21,1.048,0.37,1.543,0.483
			c0.497,0.113,0.97,0.169,1.419,0.169c2.196,0,3.859-0.737,4.986-2.205c1.127-1.471,1.691-3.633,1.691-6.489
			c0-1.512-0.228-2.803-0.683-3.875c-0.455-1.07-1.13-1.914-2.027-2.53c0.337-0.685,0.711-1.2,1.124-1.542
			c0.411-0.344,0.85-0.514,1.311-0.514c0.112,0,0.274,0.02,0.483,0.062c0.028,0,0.056,0.008,0.084,0.021
			c-0.363,0.097-0.64,0.276-0.829,0.534c-0.189,0.259-0.284,0.579-0.284,0.956c0,0.504,0.151,0.903,0.452,1.197
			c0.301,0.294,0.71,0.442,1.229,0.442c0.588,0,1.057-0.19,1.406-0.568c0.351-0.377,0.525-0.888,0.525-1.532
			c0-0.883-0.287-1.583-0.86-2.101c-0.575-0.518-1.338-0.778-2.289-0.778c-0.77,0-1.52,0.239-2.248,0.714
			c-0.728,0.478-1.421,1.184-2.078,2.122c-0.419-0.14-0.829-0.242-1.229-0.306c-0.399-0.062-0.808-0.093-1.229-0.093
			c-1.931,0-3.483,0.787-4.651,2.362c-1.169,1.576-1.754,3.686-1.754,6.332c0,1.442,0.193,2.666,0.579,3.674
			c0.384,1.008,0.991,1.848,1.817,2.52C289.731,452.997,288.983,453.676,288.478,454.462 M299.336,462.419
			c0.279,0.014,0.448,0.021,0.504,0.021c0.728,0.085,1.22,0.224,1.481,0.42c0.259,0.196,0.388,0.518,0.388,0.967
			c0,0.784-0.48,1.402-1.439,1.858c-0.959,0.454-2.272,0.682-3.937,0.682c-1.779,0-3.143-0.234-4.096-0.703
			c-0.952-0.469-1.427-1.137-1.427-2.005c0-0.406,0.094-0.764,0.282-1.07c0.19-0.309,0.473-0.574,0.852-0.799
			C294.505,462.07,296.969,462.278,299.336,462.419 M293.392,450.188c-0.335-0.805-0.503-2.266-0.503-4.379
			c0-2.127,0.168-3.601,0.503-4.422c0.337-0.818,0.911-1.229,1.723-1.229c0.797,0,1.364,0.411,1.701,1.229
			c0.335,0.821,0.503,2.295,0.503,4.422c0,2.099-0.168,3.555-0.503,4.368c-0.337,0.811-0.904,1.217-1.701,1.217
			C294.303,451.394,293.73,450.992,293.392,450.188 M278.423,444.506c0-1.51,0.17-2.607,0.514-3.284
			c0.342-0.681,0.884-1.02,1.626-1.02c0.784,0,1.341,0.312,1.67,0.935c0.329,0.623,0.494,1.719,0.494,3.287v2.666h-4.305V444.506z
			 M287.053,449.757v-1.891v-0.693c0-1.707-0.062-2.971-0.189-3.79c-0.126-0.819-0.343-1.55-0.652-2.196
			c-0.588-1.189-1.344-2.095-2.267-2.719c-0.924-0.621-1.995-0.933-3.213-0.933c-2.435,0-4.242,0.973-5.417,2.919
			c-1.176,1.946-1.764,4.962-1.764,9.05c0,4.228,0.56,7.22,1.679,8.977c1.121,1.757,2.989,2.636,5.607,2.636
			c2.071,0,3.626-0.693,4.663-2.078c1.035-1.386,1.553-3.45,1.553-6.194c0-0.085-0.006-0.239-0.021-0.463
			c-0.014-0.224-0.021-0.401-0.021-0.525h-2.961c0,2.253-0.214,3.878-0.641,4.871c-0.427,0.996-1.117,1.492-2.068,1.492
			c-1.051,0-1.799-0.533-2.247-1.596c-0.449-1.064-0.672-2.94-0.672-5.629v-1.238H287.053z M258.699,430.582h1.551
			c1.76,0,2.962,0.399,3.603,1.198c0.64,0.802,0.96,2.234,0.96,4.298c0,2.031-0.357,3.482-1.07,4.356
			c-0.714,0.871-1.908,1.306-3.581,1.306h-1.464V430.582z M258.699,445.317c0.117-0.015,0.232-0.029,0.349-0.036
			c0.116-0.008,0.284-0.012,0.502-0.012c1.413,0,2.417,0.384,3.014,1.152c0.597,0.769,0.932,2.151,1.006,4.152
			c0.014,0.464,0.028,1.143,0.043,2.039c0.058,3.137,0.385,5.297,0.983,6.482c0.393,0.767,0.899,1.326,1.518,1.679
			c0.617,0.352,1.409,0.528,2.368,0.528c1.587,0,2.738-0.521,3.452-1.561c0.712-1.04,1.07-2.736,1.07-5.088v-1.414h-1.791v2.302
			c0,0.592-0.101,1.069-0.305,1.428c-0.204,0.361-0.473,0.541-0.808,0.541c-0.671,0-1.077-1.271-1.224-3.816
			c-0.028-0.591-0.049-1.032-0.065-1.322c-0.189-2.83-0.611-4.799-1.266-5.903c-0.655-1.102-1.739-1.832-3.254-2.183
			c1.836-0.32,3.246-1.204,4.237-2.652c0.99-1.447,1.485-3.347,1.485-5.701c0-2.943-0.763-5.117-2.293-6.526
			c-1.528-1.409-3.895-2.113-7.097-2.113h-9.611v3.289c0.831,0,1.416,0.177,1.759,0.527c0.342,0.352,0.513,0.976,0.513,1.873v21.815
			c0,0.895-0.171,1.524-0.513,1.885c-0.343,0.358-0.927,0.539-1.759,0.539v3.289h10.134v-3.289h-0.174
			c-0.845,0-1.434-0.181-1.77-0.539c-0.335-0.361-0.502-0.99-0.502-1.885V445.317z"/>
	</g>
</g>
</svg>
