<svg width="21px" height="15px" viewBox="0 0 21 15" version="1.1" xmlns="http://www.w3.org/2000/svg">
    <title>XX</title>
    <desc>Created with sketchtool.</desc>
    <defs>
        <linearGradient x1="50%" y1="0%" x2="50%" y2="100%" id="linearGradient-1">
            <stop stop-color="#FFFFFF" offset="0"></stop>
            <stop stop-color="#F0F0F0" offset="1"></stop>
        </linearGradient>
    </defs>
    <path d="M 6.039 7.813 L 4.042 9.751 L 1.496 9.751 L 4.664 6.606 C 5.842 5.441 6.411 5.249 8.419 5.249 L 16.354 5.249 L 14.631 6.936 L 8.646 6.936 C 7.145 6.936 6.826 7.05 6.039 7.813 Z M 14.374 7.205 L 8.682 7.205 C 7.171 7.205 6.935 7.319 6.249 8.005 L 4.503 9.751 L 6.864 9.751 L 7.427 9.19 C 7.798 8.817 7.963 8.783 8.712 8.783 L 12.795 8.783 L 14.374 7.205 Z M 14.99 9.751 L 19.504 5.249 L 16.7 5.249 L 12.198 9.751 L 14.99 9.751 Z" fill="#E10600" style="transform-box: fill-box; transform-origin: 50% 50%;"></path>
    <path d="M 16.885 9.751 C 16.744 9.751 16.625 9.703 16.531 9.608 C 16.438 9.513 16.39 9.397 16.39 9.257 C 16.39 9.119 16.438 9.003 16.531 8.908 C 16.625 8.814 16.741 8.767 16.884 8.767 C 17.027 8.767 17.143 8.814 17.237 8.909 C 17.328 9.004 17.376 9.121 17.376 9.259 C 17.376 9.398 17.33 9.515 17.237 9.61 C 17.145 9.703 17.028 9.751 16.885 9.751 Z M 16.882 8.844 C 16.767 8.844 16.669 8.885 16.59 8.965 C 16.511 9.046 16.472 9.142 16.472 9.257 C 16.472 9.372 16.511 9.47 16.59 9.551 C 16.669 9.631 16.766 9.672 16.882 9.672 C 17 9.672 17.097 9.631 17.176 9.552 C 17.255 9.472 17.294 9.374 17.294 9.259 C 17.294 9.144 17.255 9.046 17.176 8.965 C 17.097 8.885 17 8.844 16.882 8.844 Z M 16.787 9.339 L 16.787 9.533 L 16.679 9.533 L 16.679 8.986 L 16.884 8.986 C 16.954 8.986 17.009 9 17.045 9.026 C 17.079 9.052 17.097 9.093 17.097 9.146 C 17.097 9.198 17.091 9.237 17.076 9.264 C 17.061 9.29 17.036 9.31 17.002 9.326 L 17.105 9.533 L 16.99 9.533 L 16.897 9.341 L 16.787 9.341 L 16.787 9.339 Z M 16.785 9.072 L 16.785 9.256 L 16.895 9.256 C 16.93 9.256 16.953 9.247 16.967 9.234 C 16.982 9.219 16.99 9.195 16.99 9.164 C 16.99 9.101 16.953 9.072 16.874 9.072 L 16.785 9.072 Z" fill="#E10600" style="transform-box: fill-box; transform-origin: 50% 50%;"></path>
</svg>